<svg xmlns="http://www.w3.org/2000/svg" version="1.1" xmlns:xlink="http://www.w3.org/1999/xlink" xmlns:svgjs="http://svgjs.dev/svgjs" width="1000" height="242" viewBox="0 0 1000 242"><g transform="matrix(1,0,0,1,-0.6060561924658714,-0.4765265336258011)"><svg viewBox="0 0 396 96" data-background-color="#282634" preserveAspectRatio="xMidYMid meet" height="242" width="1000" xmlns="http://www.w3.org/2000/svg" xmlns:xlink="http://www.w3.org/1999/xlink"><g id="tight-bounds" transform="matrix(1,0,0,1,0.23999825221648052,0.18903531912428662)"><svg viewBox="0 0 395.52 95.62192936175141" height="95.62192936175141" width="395.52"><g><svg viewBox="0 0 550.250672261325 133.03001343605544" height="95.62192936175141" width="395.52"><g transform="matrix(1,0,0,1,154.73067226132508,48.130538305084734)"><svg viewBox="0 0 395.52 36.76893682588597" height="36.76893682588597" width="395.52"><g id="textblocktransform"><svg viewBox="0 0 395.52 36.76893682588597" height="36.76893682588597" width="395.52" id="textblock"><g><svg viewBox="0 0 395.52 36.76893682588597" height="36.76893682588597" width="395.52"><g transform="matrix(1,0,0,1,0,0)"><svg width="395.52" viewBox="3.4000000953674316 -35.599998474121094 389.3699951171875 36.19999694824219" height="36.76893682588597" data-palette-color="#ff4057"><path d="M9.8 0L3.4 0 3.4-35 26-35 26-29.85 9.8-29.85 9.8-20.05 22.9-20.05 22.9-15 9.8-15 9.8 0ZM41.4 0L34.75 0 34.75-27.7 29-26.35 29-31.25 37.45-35 41.4-35 41.4 0ZM75.39 0.6L75.39 0.6Q70.44 0.6 66.74-1.65 63.04-3.9 60.99-7.93 58.94-11.95 58.94-17.3L58.94-17.3Q58.94-22.7 61.07-26.83 63.19-30.95 67.12-33.27 71.04-35.6 76.44-35.6L76.44-35.6Q82.59-35.6 86.64-32.65 90.69-29.7 91.89-24.5L91.89-24.5 84.74-24.5Q83.94-26.95 81.84-28.33 79.74-29.7 76.44-29.7L76.44-29.7Q71.19-29.7 68.34-26.38 65.49-23.05 65.49-17.25L65.49-17.25Q65.49-11.45 68.32-8.28 71.14-5.1 75.99-5.1L75.99-5.1Q80.74-5.1 83.17-7.68 85.59-10.25 86.09-14.45L86.09-14.45 77.24-14.45 77.24-19.25 92.54-19.25 92.54 0 86.64 0 86.14-4.6Q84.44-2.1 81.89-0.75 79.34 0.6 75.39 0.6ZM105.14 0L98.74 0 98.74-35 111.59-35Q115.79-35 118.52-33.58 121.24-32.15 122.59-29.73 123.94-27.3 123.94-24.35L123.94-24.35Q123.94-21.15 122.27-18.5 120.59-15.85 117.04-14.65L117.04-14.65 124.29 0 116.94 0 110.44-13.8 105.14-13.8 105.14 0ZM105.14-29.65L105.14-18.5 111.19-18.5Q114.39-18.5 115.89-20.05 117.39-21.6 117.39-24.15L117.39-24.15Q117.39-26.65 115.92-28.15 114.44-29.65 111.14-29.65L111.14-29.65 105.14-29.65ZM134.34 0L127.64 0 140.44-35 147.64-35 160.44 0 153.64 0 150.84-8.1 137.19-8.1 134.34 0ZM143.99-27.65L138.94-13.1 149.09-13.1 143.99-27.65ZM171.34 0L164.94 0 164.94-35 171.34-35 187.79-10.35 187.79-35 194.19-35 194.19 0 187.79 0 171.34-24.6 171.34 0ZM212.93 0L200.98 0 200.98-35 212.93-35Q219.08-35 223.06-32.83 227.03-30.65 228.96-26.73 230.88-22.8 230.88-17.5L230.88-17.5Q230.88-12.2 228.96-8.28 227.03-4.35 223.06-2.18 219.08 0 212.93 0L212.93 0ZM207.38-29.55L207.38-5.5 212.63-5.5Q217.03-5.5 219.58-6.93 222.13-8.35 223.23-11.03 224.33-13.7 224.33-17.5L224.33-17.5Q224.33-21.25 223.23-23.95 222.13-26.65 219.58-28.1 217.03-29.55 212.63-29.55L212.63-29.55 207.38-29.55ZM248.48 0.6L248.48 0.6Q244.63 0.6 241.68-0.73 238.73-2.05 237.03-4.53 235.33-7 235.28-10.55L235.28-10.55 242.03-10.55Q242.13-8.1 243.81-6.43 245.48-4.75 248.43-4.75L248.43-4.75Q250.98-4.75 252.48-5.98 253.98-7.2 253.98-9.25L253.98-9.25Q253.98-11.4 252.66-12.6 251.33-13.8 249.13-14.55 246.93-15.3 244.43-16.15L244.43-16.15Q240.38-17.55 238.26-19.75 236.13-21.95 236.13-25.6L236.13-25.6Q236.08-28.7 237.61-30.93 239.13-33.15 241.78-34.38 244.43-35.6 247.88-35.6L247.88-35.6Q251.38-35.6 254.06-34.35 256.73-33.1 258.26-30.85 259.78-28.6 259.88-25.5L259.88-25.5 253.03-25.5Q252.98-27.35 251.61-28.78 250.23-30.2 247.78-30.2L247.78-30.2Q245.68-30.25 244.26-29.18 242.83-28.1 242.83-26.05L242.83-26.05Q242.83-24.3 243.93-23.28 245.03-22.25 246.93-21.55 248.83-20.85 251.28-20.05L251.28-20.05Q253.88-19.15 256.03-17.95 258.18-16.75 259.48-14.78 260.78-12.8 260.78-9.7L260.78-9.7Q260.78-6.95 259.38-4.6 257.98-2.25 255.23-0.83 252.48 0.6 248.48 0.6ZM280.48 0L274.08 0 274.08-29.85 263.88-29.85 263.88-35 290.73-35 290.73-29.85 280.48-29.85 280.48 0ZM296.23 0L289.53 0 302.33-35 309.53-35 322.33 0 315.53 0 312.73-8.1 299.08-8.1 296.23 0ZM305.88-27.65L300.83-13.1 310.98-13.1 305.88-27.65ZM333.22 0L326.82 0 326.82-35 333.22-35 349.67-10.35 349.67-35 356.07-35 356.07 0 349.67 0 333.22-24.6 333.22 0ZM374.82 0L362.87 0 362.87-35 374.82-35Q380.97-35 384.95-32.83 388.92-30.65 390.85-26.73 392.77-22.8 392.77-17.5L392.77-17.5Q392.77-12.2 390.85-8.28 388.92-4.35 384.95-2.18 380.97 0 374.82 0L374.82 0ZM369.27-29.55L369.27-5.5 374.52-5.5Q378.92-5.5 381.47-6.93 384.02-8.35 385.12-11.03 386.22-13.7 386.22-17.5L386.22-17.5Q386.22-21.25 385.12-23.95 384.02-26.65 381.47-28.1 378.92-29.55 374.52-29.55L374.52-29.55 369.27-29.55Z" opacity="1" transform="matrix(1,0,0,1,0,0)" fill="#ff4057" class="undefined-text-0" data-fill-palette-color="primary" id="text-0"></path></svg></g></svg></g></svg></g></svg></g><g><svg viewBox="0 0 133.03001343605544 133.03001343605544" height="133.03001343605544" width="133.03001343605544"><g><svg viewBox="0 0 133.03001343605544 133.03001343605544" height="133.03001343605544" width="133.03001343605544"><g transform="matrix(1,0,0,1,41.323428619493825,35.159531850703615)"><svg viewBox="0 0 50.3831561970678 62.71094973464822" height="62.71094973464822" width="50.3831561970678"><g><svg xmlns="http://www.w3.org/2000/svg" xmlns:xlink="http://www.w3.org/1999/xlink" version="1.1" x="0" y="0" viewBox="17 8 94 117" style="enable-background:new 0 0 128 128;" xml:space="preserve" height="62.71094973464822" width="50.3831561970678" class="icon-s-0" data-fill-palette-color="accent" id="s-0"><g fill="#dcdcdc" data-fill-palette-color="accent"><path d="M54.691 75.208L54.651 76H64C60.607 76 57.506 75.731 54.691 75.208z" fill="#dcdcdc" data-fill-palette-color="accent"></path><path d="M73.309 75.208C70.494 75.731 67.393 76 64 76h9.349L73.309 75.208z" fill="#dcdcdc" data-fill-palette-color="accent"></path><path d="M90.102 28H37.898c-0.175 0.657-0.33 1.323-0.455 2h53.115C90.432 29.323 90.277 28.657 90.102 28z" fill="#dcdcdc" data-fill-palette-color="accent"></path><rect x="57" y="78" width="20" height="7" fill="#dcdcdc" data-fill-palette-color="accent"></rect><path d="M89.001 62.275c-5.057 4.615-11.338 7.788-18.08 9.065-0.062 0.012-0.125 0.018-0.187 0.018-0.277 0-0.545-0.115-0.736-0.323-0.233-0.254-0.319-0.611-0.228-0.944l1.988-7.158C69.253 63.631 66.645 64 64 64c-2.645 0-5.253-0.369-7.759-1.068l1.988 7.158c0.092 0.333 0.006 0.69-0.228 0.944-0.191 0.208-0.459 0.323-0.736 0.323-0.062 0-0.124-0.006-0.187-0.018-6.742-1.277-13.024-4.45-18.08-9.065C42.564 70.053 50.915 74 64 74S85.437 70.053 89.001 62.275z" fill="#dcdcdc" data-fill-palette-color="accent"></path><rect x="51" y="78" width="4" height="7" fill="#dcdcdc" data-fill-palette-color="accent"></rect><path d="M50 11.929c-3.367 2.044-6.267 4.8-8.469 8.071H50V11.929z" fill="#dcdcdc" data-fill-palette-color="accent"></path><path d="M87.692 22H78v4h11.484C88.993 24.61 88.395 23.272 87.692 22z" fill="#dcdcdc" data-fill-palette-color="accent"></path><path d="M76 10.829C72.361 9.018 68.279 8 64 8s-8.361 1.018-12 2.829V20h24V10.829z" fill="#dcdcdc" data-fill-palette-color="accent"></path><path d="M50 22h-9.692c-0.703 1.272-1.301 2.61-1.792 4H50V22z" fill="#dcdcdc" data-fill-palette-color="accent"></path><path d="M78 11.929V20h8.469C84.267 16.729 81.367 13.973 78 11.929z" fill="#dcdcdc" data-fill-palette-color="accent"></path><rect x="52" y="22" width="24" height="4" fill="#dcdcdc" data-fill-palette-color="accent"></rect><path d="M42.463 54.411c-1.81-0.27-2.847-0.467-2.88-0.473-1.018-0.218-1.856-0.614-2.554-1.113 0.04 1.84 0.233 3.56 0.573 5.162 4.791 5.481 11.213 9.365 18.258 11.047l-1.902-6.846C49.606 60.576 45.648 57.929 42.463 54.411z" fill="#dcdcdc" data-fill-palette-color="accent"></path><path d="M39.981 51.978C40.067 51.995 50.619 54 64 54s23.933-2.005 24.038-2.026C91.955 51.135 92 46.866 92 46.685V32H36v14.685C36.001 46.863 36.076 51.142 39.981 51.978zM38 34c0-0.552 0.447-1 1-1s1 0.448 1 1v1c0 0.552-0.447 1-1 1s-1-0.448-1-1V34zM38 39c0-0.552 0.447-1 1-1s1 0.448 1 1v8c0 0.552-0.447 1-1 1s-1-0.448-1-1V39z" fill="#dcdcdc" data-fill-palette-color="accent"></path><rect x="62" y="87" width="4" height="38" fill="#dcdcdc" data-fill-palette-color="accent"></rect><path d="M89.053 125H97v-9.562C94.581 116.473 89.586 119.289 89.053 125z" fill="#dcdcdc" data-fill-palette-color="accent"></path><rect x="36" y="107" width="18" height="4" fill="#dcdcdc" data-fill-palette-color="accent"></rect><path d="M51 90c0 0.553-0.447 1-1 1-15.99 0-29 13.01-29 29v5h8v-11c0-0.315 0.148-0.612 0.401-0.801 0.252-0.189 0.58-0.248 0.882-0.158 0.109 0.032 2.702 0.812 5.315 2.768 3.237 2.42 5.056 5.585 5.343 9.191H60V87h-9V90zM56 106v6c0 0.553-0.447 1-1 1H35c-0.553 0-1-0.447-1-1v-6c0-0.553 0.447-1 1-1h20C55.553 105 56 105.447 56 106z" fill="#dcdcdc" data-fill-palette-color="accent"></path><rect x="76" y="107" width="18" height="4" fill="#dcdcdc" data-fill-palette-color="accent"></rect><path d="M78 91c-0.553 0-1-0.447-1-1v-3h-9v38h19.059c0.286-3.606 2.106-6.771 5.343-9.191 2.613-1.955 5.206-2.735 5.315-2.768 0.301-0.09 0.629-0.031 0.882 0.158C98.852 113.388 99 113.685 99 114v11h8v-5C107 104.01 93.99 91 78 91zM96 112c0 0.553-0.447 1-1 1H75c-0.553 0-1-0.447-1-1v-6c0-0.553 0.447-1 1-1h20c0.553 0 1 0.447 1 1V112z" fill="#dcdcdc" data-fill-palette-color="accent"></path><path d="M79 87.028v1.988c16.632 0.53 30 14.226 30 30.984v5h2v-5C111 102.175 96.744 87.615 79 87.028z" fill="#dcdcdc" data-fill-palette-color="accent"></path><path d="M31 115.451V125h7.946C38.408 119.355 33.409 116.504 31 115.451z" fill="#dcdcdc" data-fill-palette-color="accent"></path><path d="M90.971 52.829c-0.694 0.495-1.525 0.888-2.534 1.105-0.039 0.008-1.082 0.206-2.899 0.477-3.185 3.518-7.144 6.165-11.496 7.777l-1.902 6.846c7.045-1.682 13.467-5.566 18.258-11.047C90.738 56.386 90.931 54.668 90.971 52.829z" fill="#dcdcdc" data-fill-palette-color="accent"></path><path d="M49 89.016v-1.988C31.256 87.615 17 102.175 17 120v5h2v-5C19 103.241 32.368 89.546 49 89.016z" fill="#dcdcdc" data-fill-palette-color="accent"></path><path d="M82.284 54.853C77.834 55.405 71.335 56 64 56c-7.337 0-13.836-0.596-18.283-1.147C50.693 59.422 57.219 62 64 62 70.781 62 77.307 59.422 82.284 54.853zM66.951 57.149l6-0.296c0.541-0.017 1.021 0.398 1.048 0.95s-0.398 1.021-0.95 1.048l-6 0.296c-0.017 0-0.033 0.001-0.05 0.001-0.529 0-0.972-0.416-0.998-0.951C65.974 57.646 66.399 57.176 66.951 57.149zM61.001 59.148c-0.017 0-0.033 0-0.05-0.001l-6-0.296c-0.552-0.027-0.978-0.497-0.95-1.048s0.484-0.963 1.048-0.95l6 0.296c0.552 0.027 0.978 0.497 0.95 1.048C61.973 58.732 61.53 59.148 61.001 59.148z" fill="#dcdcdc" data-fill-palette-color="accent"></path></g></svg></g></svg></g><path d="M4.942 87.884l-0.612-1.874 10.24-3.347 2.162 6.616-1.505 0.492-1.55-4.742-2.867 0.937 1.253 3.833-1.477 0.483-1.253-3.833zM10.214 100.206l-0.943-1.81 7.561-3.935-1.18-1.383 1.333-0.695 2.225 1.773 0.56 1.077zM21.029 114.265v0c-0.716-0.721-1.175-1.513-1.379-2.378-0.208-0.869-0.167-1.742 0.122-2.618 0.29-0.877 0.825-1.703 1.608-2.48v0c0.787-0.781 1.631-1.315 2.533-1.603 0.912-0.288 1.82-0.315 2.725-0.081 0.91 0.238 1.755 0.75 2.536 1.537v0c0.889 0.895 1.408 1.852 1.56 2.871 0.156 1.014-0.059 1.985-0.645 2.912v0l-1.55-1.561c0.241-0.473 0.311-0.963 0.21-1.471-0.101-0.498-0.391-0.987-0.868-1.468v0c-0.762-0.768-1.592-1.118-2.488-1.051-0.892 0.062-1.762 0.515-2.61 1.357v0c-0.843 0.837-1.292 1.69-1.347 2.557-0.05 0.873 0.276 1.663 0.977 2.37v0c0.683 0.688 1.386 1.024 2.108 1.007 0.728-0.021 1.435-0.297 2.122-0.83v0l-1.922-1.936 1.046-1.038 3.318 3.342-4.204 4.174-1.277-1.286 0.891-1.109c-0.606 0.115-1.193 0.085-1.76-0.091-0.567-0.176-1.136-0.551-1.706-1.126zM31.256 122.392l-1.667-1.052 5.752-9.109 3.342 2.11c0.73 0.461 1.252 0.963 1.568 1.508 0.321 0.548 0.464 1.105 0.428 1.672-0.03 0.57-0.206 1.11-0.529 1.621v0c-0.351 0.556-0.818 0.971-1.4 1.247-0.577 0.279-1.24 0.328-1.988 0.146v0l-0.522 5.005-1.911-1.207 0.578-4.664-1.381-0.871zM36.131 114.672l-1.834 2.905 1.574 0.994c0.556 0.351 1.048 0.473 1.476 0.367 0.434-0.103 0.791-0.376 1.071-0.82v0c0.273-0.432 0.362-0.859 0.266-1.28-0.092-0.427-0.424-0.821-0.996-1.182v0zM42.717 128.285l-1.945-0.681 7.276-8.866 2.095 0.734 0.157 11.471-1.982-0.695 0.015-2.632-3.965-1.39zM48.333 121.233l-2.947 3.715 2.95 1.034zM57.443 132.201l-1.958-0.233 1.271-10.698 1.958 0.233 4.137 8.132 0.895-7.534 1.948 0.231-1.271 10.698-1.948-0.231-4.14-8.113zM74.145 132.37l-3.659 0.426-1.246-10.701 3.659-0.426c1.253-0.146 2.31-0.045 3.173 0.302 0.856 0.348 1.528 0.901 2.018 1.66 0.482 0.752 0.786 1.669 0.911 2.751v0c0.126 1.081 0.041 2.043-0.255 2.886-0.302 0.85-0.829 1.543-1.582 2.079-0.76 0.536-1.766 0.877-3.019 1.023zM71.392 123.529l0.857 7.358 1.602-0.187c0.897-0.104 1.589-0.332 2.075-0.682 0.487-0.351 0.811-0.813 0.972-1.387 0.16-0.573 0.196-1.246 0.106-2.017v0c-0.089-0.765-0.278-1.408-0.566-1.929-0.289-0.528-0.711-0.91-1.266-1.145-0.555-0.236-1.281-0.302-2.178-0.198v0zM88.618 129.184v0c-0.746 0.26-1.452 0.362-2.118 0.306-0.66-0.058-1.237-0.272-1.731-0.641-0.498-0.361-0.874-0.884-1.127-1.569v0l1.966-0.684c0.185 0.47 0.496 0.808 0.933 1.014 0.44 0.212 0.944 0.219 1.515 0.02v0c0.495-0.173 0.845-0.428 1.05-0.767 0.212-0.341 0.249-0.709 0.111-1.103v0c-0.144-0.414-0.386-0.695-0.726-0.844-0.338-0.142-0.745-0.211-1.221-0.207-0.476 0.004-0.988 0.01-1.533 0.018v0c-0.88-0.003-1.601-0.145-2.163-0.428-0.556-0.284-0.956-0.777-1.201-1.479v0c-0.222-0.597-0.261-1.164-0.118-1.699 0.144-0.535 0.431-1.011 0.863-1.429 0.431-0.417 0.982-0.743 1.652-0.976v0c0.677-0.236 1.318-0.322 1.924-0.259 0.605 0.063 1.131 0.26 1.576 0.589 0.448 0.336 0.785 0.802 1.014 1.397v0l-1.993 0.695c-0.133-0.361-0.382-0.633-0.748-0.815-0.359-0.184-0.777-0.193-1.254-0.027v0c-0.41 0.136-0.716 0.355-0.92 0.658-0.204 0.303-0.236 0.655-0.096 1.056v0c0.118 0.338 0.317 0.568 0.599 0.688 0.283 0.126 0.633 0.194 1.051 0.203 0.409 0.005 0.88 0.003 1.41-0.007v0c0.563 0.001 1.094 0.044 1.596 0.13 0.495 0.088 0.937 0.278 1.327 0.571 0.384 0.295 0.681 0.743 0.89 1.345v0c0.186 0.533 0.223 1.075 0.113 1.626-0.119 0.547-0.396 1.052-0.832 1.514-0.435 0.468-1.037 0.836-1.809 1.104zM100.828 123.02l-1.693 1.01-4.707-7.894-2.694 1.606-0.81-1.359 7.098-4.233 0.81 1.36-2.711 1.617zM107.82 117.923l-1.53 1.381-4.296-10.634 1.649-1.487 10.143 5.358-1.56 1.408-2.303-1.275-3.12 2.814zM104.321 109.615l1.848 4.367 2.321-2.094zM118.313 106.875l-1.143 1.607-8.78-6.242 1.142-1.607 9.12 0.265-6.184-4.395 1.137-1.599 8.781 6.242-1.137 1.599-9.104-0.254zM126.465 92.296l-1.379 3.416-9.99-4.034 1.38-3.416c0.472-1.169 1.067-2.049 1.786-2.64 0.716-0.584 1.523-0.91 2.423-0.976 0.891-0.062 1.842 0.11 2.851 0.518v0c1.009 0.408 1.813 0.943 2.412 1.608 0.602 0.673 0.957 1.468 1.066 2.385 0.107 0.924-0.076 1.97-0.549 3.139zM117.386 90.476l6.869 2.774 0.604-1.495c0.338-0.837 0.47-1.553 0.395-2.149-0.074-0.596-0.325-1.101-0.751-1.517-0.426-0.416-1-0.769-1.72-1.06v0c-0.714-0.288-1.369-0.431-1.964-0.428-0.602 0-1.139 0.188-1.612 0.563-0.473 0.374-0.879 0.98-1.217 1.817v0z" fill="#dcdcdc" data-fill-palette-color="accent"></path><path d="M12.97 50.543L12.368 52.389 2.295 49.107 4.418 42.593 5.894 43.075 4.374 47.742 7.195 48.661 8.423 44.893 9.88 45.368 8.653 49.136ZM17.758 39.356L16.83 41.14 9.393 37.27 8.951 39.004 7.635 38.32 7.809 35.526 8.36 34.466ZM27.591 27.272V27.272C26.883 27.982 26.107 28.441 25.263 28.648 24.409 28.856 23.55 28.82 22.686 28.539 21.817 28.264 20.999 27.744 20.233 26.98V26.98C19.463 26.211 18.933 25.379 18.646 24.482 18.363 23.591 18.334 22.699 18.558 21.807 18.786 20.92 19.287 20.088 20.061 19.313V19.313C20.937 18.434 21.873 17.914 22.868 17.753 23.867 17.597 24.823 17.804 25.734 18.376V18.376L24.208 19.905C23.748 19.671 23.269 19.606 22.772 19.71 22.275 19.814 21.792 20.101 21.323 20.571V20.571C20.573 21.323 20.231 22.14 20.298 23.023 20.37 23.9 20.819 24.752 21.647 25.577V25.577C22.478 26.406 23.319 26.846 24.169 26.897 25.028 26.947 25.804 26.625 26.498 25.929V25.929C27.173 25.252 27.5 24.557 27.481 23.844 27.456 23.126 27.181 22.434 26.654 21.768V21.768L24.763 23.664 23.734 22.638 27.003 19.36 31.127 23.473 29.869 24.734 28.769 23.863C28.887 24.459 28.86 25.036 28.687 25.595 28.519 26.149 28.154 26.708 27.591 27.272ZM36.256 19.965L34.612 20.998 28.974 12.029 32.27 9.957C32.989 9.505 33.658 9.253 34.276 9.201 34.895 9.15 35.45 9.26 35.941 9.531 36.433 9.802 36.838 10.19 37.156 10.696V10.696C37.499 11.241 37.668 11.828 37.664 12.458 37.664 13.094 37.425 13.706 36.949 14.295V14.295L41.162 16.881 39.282 18.062 35.387 15.571 34.03 16.424ZM31.476 12.361L33.272 15.219 34.823 14.244C35.368 13.901 35.687 13.517 35.78 13.09 35.867 12.667 35.774 12.239 35.502 11.806V11.806C35.233 11.379 34.894 11.114 34.485 11.011 34.069 10.911 33.578 11.04 33.01 11.397V11.397ZM46.211 14.829L44.293 15.497 44.465 4.219 46.525 3.501 53.667 12.231 51.73 12.906 50.116 10.875 46.214 12.234ZM46.211 5.962L46.224 10.628 49.12 9.619ZM59.317 11.325L57.388 11.55 56.16 1.028 58.088 0.803 63.898 7.632 63.033 0.225 64.961 0 66.19 10.523 64.261 10.748 58.453 3.928ZM74.209 11.187L70.61 10.762 71.854 0.241 75.453 0.666C76.686 0.812 77.676 1.15 78.422 1.679 79.161 2.208 79.679 2.887 79.975 3.718 80.271 4.555 80.356 5.504 80.23 6.565V6.565C80.105 7.627 79.801 8.526 79.319 9.265 78.837 10.01 78.174 10.553 77.332 10.895 76.483 11.235 75.442 11.333 74.209 11.187ZM73.589 2.1L72.734 9.338 74.316 9.525C75.192 9.629 75.905 9.566 76.453 9.337 76.995 9.114 77.409 8.748 77.696 8.241 77.977 7.726 78.163 7.089 78.253 6.331V6.331C78.341 5.58 78.309 4.921 78.155 4.355 77.995 3.788 77.678 3.329 77.205 2.979 76.726 2.622 76.048 2.391 75.171 2.287V2.287ZM86.931 14.368V14.368C86.198 14.111 85.593 13.759 85.117 13.311 84.641 12.863 84.327 12.345 84.174 11.757 84.013 11.173 84.045 10.54 84.269 9.859V9.859L86.205 10.538C86.059 11.014 86.09 11.468 86.298 11.899 86.505 12.331 86.888 12.644 87.445 12.839V12.839C87.934 13.011 88.361 13.026 88.726 12.887 89.096 12.756 89.348 12.497 89.484 12.108V12.108C89.629 11.695 89.616 11.331 89.444 11.018 89.269 10.696 88.998 10.394 88.633 10.112 88.264 9.82 87.87 9.51 87.451 9.18V9.18C86.768 8.639 86.3 8.088 86.046 7.528 85.784 6.972 85.774 6.346 86.018 5.651V5.651C86.22 5.053 86.539 4.595 86.974 4.276 87.411 3.951 87.924 3.762 88.513 3.708 89.102 3.654 89.725 3.742 90.383 3.972V3.972C91.047 4.205 91.591 4.529 92.015 4.945 92.445 5.363 92.73 5.836 92.869 6.363 93.008 6.889 92.982 7.454 92.793 8.056V8.056L90.838 7.371C90.957 7.012 90.932 6.651 90.763 6.29 90.594 5.928 90.275 5.665 89.805 5.5V5.5C89.415 5.35 89.046 5.329 88.698 5.439 88.356 5.552 88.117 5.802 87.981 6.191V6.191C87.865 6.523 87.876 6.822 88.015 7.089 88.16 7.357 88.39 7.624 88.705 7.889 89.016 8.146 89.38 8.432 89.797 8.747V8.747C90.23 9.096 90.611 9.454 90.939 9.822 91.272 10.199 91.494 10.618 91.607 11.079 91.726 11.543 91.682 12.069 91.476 12.658V12.658C91.291 13.184 90.987 13.623 90.561 13.973 90.14 14.332 89.619 14.554 88.999 14.639 88.378 14.724 87.689 14.634 86.931 14.368ZM97.876 19.558L96.211 18.561 100.856 10.804 98.208 9.219 99.006 7.886 105.976 12.06 105.178 13.393 102.521 11.802ZM103.735 23.837L102.23 22.473 112.214 17.224 113.83 18.688 109.586 29.139 108.066 27.762 109.077 25.372 106.015 22.597ZM111.52 19.591L107.429 21.837 109.702 23.896ZM113.087 33.665L111.966 32.08 120.615 25.962 121.736 27.547 118.523 35.918 124.611 31.611 125.732 33.197 117.083 39.314 115.962 37.729 119.168 29.364ZM120.34 46.673L118.99 43.309 128.822 39.363 130.172 42.727C130.634 43.879 130.812 44.909 130.704 45.817 130.594 46.72 130.246 47.5 129.659 48.158 129.065 48.818 128.273 49.347 127.281 49.745V49.745C126.289 50.143 125.354 50.307 124.475 50.238 123.59 50.171 122.796 49.85 122.092 49.274 121.386 48.692 120.802 47.825 120.34 46.673ZM128.02 41.777L121.256 44.492 121.85 45.97C122.179 46.789 122.575 47.385 123.039 47.757 123.494 48.125 124.013 48.313 124.596 48.322 125.183 48.323 125.831 48.181 126.539 47.897V47.897C127.241 47.615 127.804 47.271 128.228 46.865 128.649 46.453 128.9 45.955 128.98 45.372 129.065 44.78 128.943 44.075 128.614 43.255V43.255Z" fill="#dcdcdc" data-fill-palette-color="accent"></path><path d="M1.492 68.016c0-2.273 1.843-4.115 4.116-4.116 2.273 0 4.115 1.843 4.115 4.116 0 2.273-1.843 4.115-4.115 4.115-2.273 0-4.115-1.843-4.115-4.115zM123.352 68.016c0-2.273 1.843-4.115 4.115-4.116 2.273 0 4.115 1.843 4.116 4.116 0 2.273-1.843 4.115-4.116 4.115-2.273 0-4.115-1.843-4.115-4.115z" fill="#dcdcdc" data-fill-palette-color="accent"></path></svg></g></svg></g></svg></g><defs></defs></svg><rect width="395.52" height="95.62192936175141" fill="none" stroke="none" visibility="hidden"></rect></g></svg></g></svg>